<?xml version="1.0" encoding="UTF-8"?>
<svg id="Layer_2" data-name="Layer 2" xmlns="http://www.w3.org/2000/svg" xmlns:xlink="http://www.w3.org/1999/xlink" viewBox="0 0 1072.34 228.91">
  <defs>
    <style>
      .cls-1 {
        fill: url(#radial-gradient);
      }

      .cls-1, .cls-2, .cls-3, .cls-4 {
        stroke-width: 0px;
      }

      .cls-2 {
        fill: url(#radial-gradient-2);
      }

      .cls-3 {
        fill: url(#radial-gradient-3);
      }

      .cls-4 {
        fill: #0b0b0b;
      }
    </style>
    <radialGradient id="radial-gradient" cx="172.18" cy="32.75" fx="172.18" fy="32.75" r="0" gradientUnits="userSpaceOnUse">
      <stop offset="0" stop-color="#7bcee1"/>
      <stop offset=".32" stop-color="#78cce0"/>
      <stop offset=".51" stop-color="#70c6dd"/>
      <stop offset=".66" stop-color="#61bdd8"/>
      <stop offset=".8" stop-color="#4db0d2"/>
      <stop offset=".93" stop-color="#339fc9"/>
      <stop offset="1" stop-color="#2193c4"/>
    </radialGradient>
    <radialGradient id="radial-gradient-2" cx="56.74" fx="56.74" r="0" xlink:href="#radial-gradient"/>
    <radialGradient id="radial-gradient-3" cx="114.46" cy="114.46" fx="114.46" fy="114.46" r="114.46" xlink:href="#radial-gradient"/>
  </defs>
  <g id="Layer_1-2" data-name="Layer 1">
    <g>
      <g>
        <polygon class="cls-1" points="172.16 32.75 172.17 32.75 172.18 32.75 172.19 32.75 172.16 32.75"/>
        <g>
          <path class="cls-2" d="M56.75,32.75h0s0,0,0,0c0,0,0,0,0,0h.03Z"/>
          <path class="cls-3" d="M227.91,89.6c-1.28-2.34-3.61-3.95-6.24-4.32-.38-.05-.76-.07-1.12-.07-2.48,0-4.83,1.08-6.43,2.95-.43.5-.8,1.06-1.1,1.65v.04c-.47,1.4-1.35,1.69-2,1.69h-41.23l14.04-14.04c13.39-13.39,15.04-15.05,15.36-15.31l-.15.1.52-.46h.68c.4,0,.7.11,1.39.39l.12.05c.37.11.74.19,1.12.25.41.07.83.1,1.27.1,2.56,0,5.04-1.18,6.62-3.17,1.72-2.17,2.27-5.16,1.42-7.82-.88-2.72-3.14-4.85-5.9-5.56-.68-.18-1.38-.26-2.08-.26-2.11,0-4.12.76-5.66,2.15-2.24,2.02-3.23,5.12-2.58,8.07.07.35.17.68.28.98.2.45.66,1.5-.23,2.41l-24.5,24.5-3.79,3.71s7.48-51.75,7.69-53.23c.17-1.24,1.25-1.5,1.72-1.61l.17-.05c.5-.17.9-.34,1.23-.51.79-.42,1.51-.93,2.11-1.53,1.17-1.18,1.99-2.74,2.31-4.38.66-3.42-.96-7.03-3.93-8.77-1.31-.77-2.81-1.18-4.34-1.18-1.95,0-3.83.67-5.29,1.87-2.72,2.24-3.76,6-2.58,9.42l.05.12c.35.92.18,1.68-.52,2.38l-23.54,23.55-5.43,5.44V17.9c0-.65.29-1.51,1.71-2,.59-.3,1.14-.67,1.66-1.11,2.16-1.84,3.26-4.73,2.87-7.55-.36-2.63-1.97-4.96-4.31-6.24-1.22-.66-2.6-1.01-4.02-1.01-1.31,0-2.6.3-3.74.87-2.38,1.19-4.08,3.45-4.55,6.05-.49,2.8.49,5.73,2.58,7.65.51.47,1.08.88,1.63,1.18l.13.05c.74.31,1.86.78,1.86,2.06v40.01s-31.2-41.75-32.23-43.14c-.77-.98-.2-1.94.13-2.5.22-.43.38-.82.5-1.18.28-.85.36-1.75.43-2.67.05-.65-.08-1.45-.37-2.46-.23-.77-.59-1.53-1.08-2.26-1.54-2.27-4.22-3.68-7-3.68-.68,0-1.35.09-2,.25-3.4.88-5.94,3.77-6.31,7.2-.37,3.49,1.42,6.87,4.54,8.44.81.35,1.72.74,1.72,1.96v41.27l-29.18-29.17c-.89-.87-.47-1.86-.18-2.55.23-.7.37-1.42.41-2.14.19-3.01-1.26-5.9-3.78-7.56-1.36-.89-2.96-1.36-4.62-1.36-1.14,0-2.24.22-3.27.66-2.63,1.11-4.54,3.55-5.01,6.36-.46,2.78.54,5.69,2.62,7.6,1.55,1.41,3.57,2.19,5.7,2.19.83,0,1.64-.12,2.51-.39.03-.01.12-.05.12-.05.55-.22.86-.34,1.29-.34l.78.02.42.46.12.11s22.47,22.47,24.34,24.34l3.73,3.88-53.16-7.69c-1.21-.17-1.48-1.21-1.65-1.87h0c-.17-.49-.33-.9-.51-1.25-.38-.73-.89-1.37-1.54-2.12-.95-1.08-2.63-1.97-4.37-2.3-.52-.1-1.03-.15-1.53-.15-2.99,0-5.77,1.56-7.25,4.08-1.78,3.03-1.52,6.87.63,9.55,1.59,1.98,4.07,3.16,6.63,3.16.9,0,1.78-.14,2.61-.42l.07-.02.07-.02s-.07.02-.08.02c.5-.2.81-.32,1.24-.32h.67s.62.57.62.57l.02.03,22.64,22.63,6.47,6.48H17.9c-.65,0-1.53-.29-1.99-1.69v-.04c-.31-.59-.68-1.14-1.11-1.65-1.61-1.88-3.95-2.95-6.43-2.95-.36,0-.74.03-1.13.07-2.62.36-4.96,1.98-6.23,4.32-1.3,2.37-1.35,5.35-.15,7.76,1.19,2.38,3.45,4.08,6.06,4.54.47.08.96.13,1.44.13,2.36,0,4.62-.98,6.2-2.69.48-.52.88-1.09,1.18-1.64l.06-.14c.31-.74.78-1.85,2.06-1.85h40.01L14.69,127.99l-.47.34h-.57c-.53,0-.89-.21-1.38-.5h-.02c-.42-.22-.81-.39-1.18-.51-.86-.28-1.83-.37-2.69-.44h-.25c-.56,0-1.25.11-2.1.36-.78.22-1.54.57-2.27,1.06-2.89,1.92-4.34,5.6-3.52,8.95.83,3.4,3.8,6.03,7.24,6.4.3.03.59.05.88.05,3.18,0,6.13-1.78,7.49-4.44l.08-.19c.32-.75.73-1.69,1.94-1.69h41.28l-3.07,3.06c-.26.26-26.12,26.14-26.2,26.2l-.52.46h-.69c-.41,0-.71-.12-1.26-.35-.71-.23-1.43-.37-2.13-.42-.18,0-.35-.01-.53-.01-2.81,0-5.51,1.45-7.05,3.79-1.52,2.32-1.79,5.34-.71,7.89,1.11,2.62,3.55,4.55,6.36,5.02.45.07.91.11,1.36.11,2.37,0,4.64-1,6.24-2.73,2.04-2.21,2.72-5.37,1.78-8.32,0,.02.01.04,0,.04,0,0,0,0-.01-.03-.31-.75-.69-1.7.25-2.64l24.3-24.31,3.93-3.96-7.71,53.34c-.17,1.24-1.24,1.51-1.83,1.65-.52.17-.93.35-1.29.53-.83.44-1.54.95-2.12,1.54-1.17,1.17-1.99,2.72-2.31,4.37-.65,3.42.97,7.03,3.93,8.78,1.31.76,2.81,1.17,4.34,1.17,1.96,0,3.84-.66,5.29-1.87,2.71-2.24,3.75-6.01,2.59-9.38l-.06-.16c-.36-.94-.2-1.67.52-2.38l.91-.91c1.04-1.03,2.08-2.07,3.11-3.11l21.89-21.9,3.06-3.03v41.2c0,.65-.29,1.53-1.7,1.99h-.03c-.58.3-1.14.68-1.65,1.11-2.16,1.84-3.26,4.74-2.88,7.55.36,2.63,1.98,4.96,4.32,6.24,1.22.66,2.6,1.01,4.02,1.01,1.3,0,2.6-.3,3.74-.87,2.38-1.18,4.08-3.45,4.54-6.06.49-2.8-.49-5.73-2.58-7.66-.51-.47-1.07-.87-1.62-1.18l-.14-.06c-.74-.31-1.87-.77-1.87-2.06v-40.01l32.27,43.18c.73.99.19,1.89-.14,2.43l-.03.05c-.23.47-.39.87-.52,1.23-.27.87-.41,1.74-.41,2.58,0,1.69.54,3.4,1.51,4.8,1.57,2.25,4.17,3.59,6.95,3.59.75,0,1.49-.1,2.21-.3,3.31-.92,5.83-3.94,6.11-7.36.29-3.45-1.53-6.68-4.64-8.27l-.12-.05c-.53-.23-1.53-.65-1.53-1.86v-41.28s7.45,7.46,7.45,7.46c3.16,3.15,6.33,6.32,9.49,9.48l7.25,7.25c3.11,3.11,4.47,4.48,5.03,5.21l-.05-.22c.89.87.48,1.87.2,2.53-.01.03-.02.05-.03.08-.22.67-.35,1.37-.39,2.09-.19,3,1.26,5.9,3.78,7.56,1.36.89,2.97,1.36,4.63,1.36,1.13,0,2.24-.22,3.27-.66,2.63-1.11,4.54-3.54,5.01-6.36.47-2.78-.54-5.7-2.62-7.6-1.54-1.42-3.57-2.19-5.7-2.19-.87,0-1.72.14-2.51.38l-.12.05c-.6.24-.87.35-1.28.35h-.07l-.75-.08-24.82-24.82-3.96-3.93,53.34,7.71c1.24.16,1.52,1.25,1.67,1.84v.04c.19.51.35.9.52,1.23.38.74.89,1.38,1.54,2.12.42.49,1.08.97,2.01,1.48.71.39,1.5.66,2.36.83.5.09,1.01.14,1.53.14,3.05,0,5.87-1.64,7.36-4.26.75-1.34,1.13-2.85,1.08-4.38-.1-3.51-2.41-6.62-5.75-7.73-.87-.29-1.78-.43-2.7-.43-.82,0-1.6.12-2.33.34-.03.02-.06.03-.11.05-.42.18-.89.39-1.41.39s-.98-.2-1.37-.59l-32.61-32.6c-.43-.43-.98-.68-1.61-.68-.49,0-.96.25-1.25.46-.33.24-.58.76-.76,1.17-2.91,6.9-7.34,13.2-12.79,18.2-5.66,5.2-12.59,9.16-20.04,11.47-4.99,1.54-10.18,2.32-15.41,2.32-3.73,0-7.46-.4-11.08-1.2-7.41-1.62-14.51-4.89-20.52-9.45-5.33-4.04-9.79-9.02-13.25-14.8-3.41-5.7-5.69-11.9-6.77-18.43-1.09-6.6-.9-13.51.56-19.99,1.59-7.05,4.69-13.85,8.98-19.66,4.39-5.96,10.15-11.01,16.66-14.62,7.52-4.17,15.98-6.45,24.47-6.61.32,0,.64-.01.96-.01,8.27,0,16.57,2.02,24.01,5.84,6.62,3.4,12.54,8.27,17.11,14.07,2.3,2.92,4.3,6.12,5.94,9.5.4.83.8,1.71,1.17,2.58.2.45.38.81.65,1.07.1.07.19.13.27.19.07.06.14.11.24.16.16.08.35.15.54.18.12.02.25.03.38.03.05,0,.08-.02.13-.03h46.16c1.29,0,1.76,1.15,2.06,1.89l.06.14c.3.55.71,1.12,1.18,1.64,1.58,1.71,3.85,2.69,6.21,2.69.48,0,.97-.04,1.44-.13,2.61-.46,4.88-2.16,6.06-4.54,1.2-2.41,1.15-5.39-.15-7.76ZM146.34,161.1c6.26-4.27,11.72-9.89,15.78-16.28.76-1.19,1.5-2.45,2.19-3.76l1.14-2.13,32.81,32.81-55.74-8.06,3.82-2.6ZM104.04,170.02c3.4.64,6.87.96,10.32.96,5.51,0,10.99-.81,16.27-2.39l2.58-.78v46.43l-31.39-42-2.29-3.07,4.52.85ZM14.68,133.21l45.06-33.68-.85,4.52c-1.62,8.66-1.17,17.73,1.32,26.23.06.21.89,2.94.89,2.94H14.68ZM65.21,142.55l2.6,3.81c4.27,6.27,9.89,11.72,16.27,15.78,1.22.77,2.48,1.51,3.75,2.19l2.14,1.14-32.82,32.82.52-3.58,7.54-52.16ZM82.51,67.8c-6.27,4.28-11.73,9.92-15.78,16.33-.75,1.18-1.47,2.43-2.15,3.7l-1.13,2.14L30.64,57.15l55.7,8.06-3.83,2.59ZM124.85,58.87c-3.39-.64-6.88-.97-10.37-.97-5.36,0-10.68.76-15.81,2.26l-.64.19-2.32.72V14.67l33.67,45.05-4.53-.85ZM163.7,86.33l-2.6-3.81c-4.27-6.27-9.91-11.72-16.33-15.78-1.21-.76-2.45-1.48-3.7-2.14l-2.13-1.14,32.8-32.81-8.05,55.69Z"/>
        </g>
      </g>
      <g>
        <path class="cls-4" d="M314.22,171.38c-28.96,0-47.14-20.18-47.14-52.38s18.49-52.38,46.83-52.38c19.72,0,32.97,8.32,39.44,23.72l-12.17,5.7c-4.47-11.71-12.79-17.87-26.34-17.87-20.8,0-34.82,15.1-34.82,40.82s13.09,40.82,34.2,40.82c13.56,0,24.19-6.93,28.65-20.64l12.32,4.62c-6.47,17.41-21.88,27.58-40.98,27.58Z"/>
        <path class="cls-4" d="M438.7,131.32c0,24.96-14.02,40.05-37.28,40.05s-37.28-15.1-37.28-40.05,14.02-40.05,37.28-40.05,37.28,15.1,37.28,40.05ZM376.46,131.32c0,18.33,9.4,29.42,24.96,29.42s24.96-11.09,24.96-29.42-9.4-29.42-24.96-29.42-24.96,11.09-24.96,29.42Z"/>
        <path class="cls-4" d="M522.35,120.54v49.3h-12.32v-44.98c0-17.1-8.32-22.8-18.95-22.8-11.25,0-23.88,7.09-23.88,26.81v40.98h-12.32v-77.03h10.78l.77,12.02c5.39-9.71,15.25-13.56,25.88-13.56,16.48,0,30.04,9.4,30.04,29.27Z"/>
        <path class="cls-4" d="M535.6,153.97l10.01-6.93c3.7,9.4,13.25,13.56,24.34,13.56,12.63,0,18.64-5.08,18.64-11.4,0-5.7-4.78-9.09-20.18-11.86-21.88-4.01-29.89-10.01-29.89-22.95s11.55-23.11,30.35-23.11c16.48,0,26.19,5.85,30.5,18.49l-10.47,6.16c-3.39-10.17-10.32-13.86-20.03-13.86-10.32,0-18.02,5.55-18.02,11.25,0,6.62,5.08,10.01,20.8,12.63,21.57,3.54,29.27,10.01,29.27,22.65,0,13.4-12.48,22.8-32.2,22.8-14.17,0-27.27-5.54-33.12-17.41Z"/>
        <path class="cls-4" d="M680.42,111.76l-11.71,5.55c-3.24-9.86-9.86-15.25-20.49-15.25-15.4,0-24.65,10.94-24.65,29.27s9.24,29.27,24.65,29.27c12.02,0,19.26-5.7,21.57-15.87l11.4,4c-5.24,14.17-16.33,22.65-32.66,22.65-23.26,0-37.28-15.1-37.28-40.05s14.02-40.05,37.28-40.05c15.87,0,26.19,7.86,31.89,20.49Z"/>
        <path class="cls-4" d="M692.13,68.78c0-5.55,3.7-9.24,9.24-9.24s9.24,3.7,9.24,9.24-3.7,9.24-9.24,9.24-9.24-3.7-9.24-9.24ZM707.53,169.84h-12.32v-77.03h12.32v77.03Z"/>
        <path class="cls-4" d="M793.96,135.94h-58.08c1.54,15.56,10.94,24.65,25.11,24.65,11.25,0,18.95-4.01,21.72-11.4l10.32,5.39c-5.85,10.48-15.41,16.79-32.04,16.79-23.26,0-37.28-15.1-37.28-40.05s13.09-40.05,36.36-40.05,34.51,16.18,34.51,36.05c0,3.54-.31,6.47-.62,8.63ZM736.04,125.01h46.68c-1.69-14.17-9.55-22.95-22.65-22.95s-22.18,8.47-24.03,22.95Z"/>
        <path class="cls-4" d="M877.77,120.54v49.3h-12.32v-44.98c0-17.1-8.32-22.8-18.95-22.8-11.25,0-23.88,7.09-23.88,26.81v40.98h-12.32v-77.03h10.78l.77,12.02c5.39-9.71,15.25-13.56,25.88-13.56,16.48,0,30.04,9.4,30.04,29.27Z"/>
        <path class="cls-4" d="M944.02,164.44c-4.78,4.31-11.4,6.93-19.87,6.93-11.4,0-21.26-5.7-21.41-20.64v-47.29h-15.41v-10.63h15.41v-18.49l12.32-3.39v21.88h28.5v10.63h-28.5v45.14c0,7.55,4.78,11.25,11.55,11.25,5.54,0,9.55-2.16,13.09-5.7l4.31,10.32Z"/>
        <path class="cls-4" d="M1023.19,141.64h-46.06l-10.78,28.19h-12.94l39.59-101.67h14.63l39.44,101.67h-13.09l-10.78-28.19ZM1018.72,130.09l-13.71-36.05-4.78-14.17h-.31l-4.47,13.71-13.86,36.51h37.13Z"/>
        <path class="cls-4" d="M1072.34,169.84h-12.32v-101.67h12.32v101.67Z"/>
      </g>
    </g>
  </g>
</svg>