<?xml version="1.0" encoding="UTF-8"?>
<svg width="153px" height="21px" viewBox="0 0 153 21" version="1.1" xmlns="http://www.w3.org/2000/svg" xmlns:xlink="http://www.w3.org/1999/xlink">
    <title>seedstars_blue</title>
    <g id="Homepage" stroke="none" stroke-width="1" fill="none" fill-rule="evenodd">
        <g id="seedstars_blue" transform="translate(-0.000000, 0.000000)" fill-rule="nonzero">
            <path d="M33.8004079,20 C32.6439344,20 31.5371698,19.8348968 30.4800809,19.5046854 C29.4229919,19.174474 28.5963066,18.7594849 28,18.2597055 L28.8673507,16.7603748 C29.4636573,17.2244557 30.2135467,17.6037468 31.1170416,17.8982597 C32.0205364,18.1927725 32.960157,18.3400268 33.9359314,18.3400268 C35.236964,18.3400268 36.1991716,18.1392255 36.822583,17.7376171 C37.4459944,17.3360087 37.7576955,16.7693031 37.7576955,16.0374833 C37.7576955,15.5198546 37.586034,15.11379 37.242706,14.8192771 C36.8993779,14.5247643 36.4657069,14.3016518 35.9416799,14.1499331 C35.4176529,13.9982144 34.7219723,13.8509601 33.8546173,13.708166 C32.6981438,13.4939748 31.7675582,13.2753246 31.0628322,13.0522088 C30.3581063,12.829093 29.7572911,12.4498019 29.260369,11.914324 C28.7634468,11.3788461 28.5149895,10.6381127 28.5149895,9.69210173 C28.5149895,8.51405036 29.0119042,7.55020455 30.0057485,6.80053545 C30.9995928,6.05086636 32.3819192,5.67603745 34.152769,5.67603745 C35.0743338,5.67603745 35.9958847,5.79651818 36.9174495,6.03748327 C37.8390141,6.27844836 38.5979384,6.595268 39.194245,6.98795182 L38.353999,8.51405618 C37.1794558,7.71083936 35.7790598,7.30923691 34.152769,7.30923691 C32.9240161,7.30923691 31.9979477,7.52342491 31.3745363,7.95180727 C30.7511249,8.38018955 30.4394238,8.94243291 30.4394238,9.63855418 C30.4394238,10.1740321 30.6156027,10.602408 30.9679657,10.9236948 C31.3203287,11.2449815 31.7585171,11.4814807 32.2825441,11.6331995 C32.8065711,11.7849182 33.5293562,11.9410969 34.4509208,12.1017403 C35.5893244,12.3159315 36.5018405,12.5301195 37.1884966,12.7443105 C37.8751526,12.9585017 38.4624154,13.3244062 38.9503026,13.8420348 C39.4381899,14.3596635 39.6821298,15.0736233 39.6821298,15.9839357 C39.6821298,17.2155349 39.1626281,18.1927675 38.123609,18.9156626 C37.08459,19.6385578 35.6435373,20 33.8004079,20 Z M88.0797989,0 L88.0797989,19.8661312 L86.2366793,19.8661312 L86.2366793,17.08166 C85.658442,18.0276709 84.8950009,18.7505553 83.9463315,19.2503346 C82.9976612,19.7501141 81.9270362,20 80.734423,20 C79.3972509,20 78.1865861,19.6965671 77.1023922,19.0896921 C76.0181984,18.4828171 75.1689257,17.6349898 74.5545489,16.5461847 C73.940173,15.4573796 73.6329891,14.2168745 73.6329891,12.8246318 C73.6329891,11.4323893 73.940173,10.1918841 74.5545489,9.103079 C75.1689257,8.01427391 76.0181984,7.17090882 77.1023922,6.57295855 C78.1865861,5.97500818 79.3972509,5.67603745 80.734423,5.67603745 C81.8908967,5.67603745 82.9344176,5.91253664 83.8650172,6.38554218 C84.7956168,6.85854764 85.559058,7.55019627 86.155365,8.46050873 L86.155365,0 L88.0797989,0 Z M80.8970516,18.313253 C81.8908958,18.313253 82.7898596,18.0856783 83.5939701,17.6305221 C84.3980806,17.1753658 85.0305172,16.5283397 85.4912998,15.6894244 C85.9520815,14.850509 86.1824701,13.8955877 86.1824701,12.8246318 C86.1824701,11.753676 85.9520815,10.7987547 85.4912998,9.95983936 C85.0305172,9.120924 84.3980806,8.47389782 83.5939701,8.01874164 C82.7898596,7.56358536 81.8908958,7.33601073 80.8970516,7.33601073 C79.8851368,7.33601073 78.9771386,7.56358536 78.1730281,8.01874164 C77.3689176,8.47389782 76.736481,9.120924 76.2756984,9.95983936 C75.8149158,10.7987547 75.5845281,11.753676 75.5845281,12.8246318 C75.5845281,13.8955877 75.8149158,14.850509 76.2756984,15.6894244 C76.736481,16.5283397 77.3689176,17.1753658 78.1730281,17.6305221 C78.9771386,18.0856783 79.8851368,18.313253 80.8970516,18.313253 Z M96.9068995,20 C95.7504266,20 94.6436621,19.8348968 93.5865725,19.5046854 C92.5294837,19.174474 91.7027989,18.7594849 91.1064918,18.2597055 L91.9738424,16.7603748 C92.5701495,17.2244557 93.3200389,17.6037468 94.2235335,17.8982597 C95.1270281,18.1927725 96.0666486,18.3400268 97.042423,18.3400268 C98.3434556,18.3400268 99.305663,18.1392255 99.9290752,17.7376171 C100.552486,17.3360087 100.864188,16.7693031 100.864188,16.0374833 C100.864188,15.5198546 100.692526,15.11379 100.349198,14.8192771 C100.00587,14.5247643 99.5721984,14.3016518 99.0481721,14.1499331 C98.5241449,13.9982144 97.8284638,13.8509601 96.9611096,13.708166 C95.8046359,13.4939748 94.8740498,13.2753246 94.1693243,13.0522088 C93.4645978,12.829093 92.8637826,12.4498019 92.3668605,11.914324 C91.8699384,11.3788461 91.621481,10.6381127 91.621481,9.69210173 C91.621481,8.51405036 92.1183958,7.55020455 93.11224,6.80053545 C94.1060851,6.05086636 95.4884112,5.67603745 97.2592609,5.67603745 C98.1808261,5.67603745 99.1023768,5.79651818 100.023941,6.03748327 C100.945506,6.27844836 101.70443,6.595268 102.300737,6.98795182 L101.460491,8.51405618 C100.285948,7.71083936 98.8855516,7.30923691 97.2592609,7.30923691 C96.0305082,7.30923691 95.1044393,7.52342491 94.4810281,7.95180727 C93.8576168,8.38018955 93.5459158,8.94243291 93.5459158,9.63855418 C93.5459158,10.1740321 93.7220942,10.602408 94.0744574,10.9236948 C94.4268207,11.2449815 94.8650091,11.4814807 95.3890362,11.6331995 C95.9130634,11.7849182 96.6358478,11.9410969 97.557413,12.1017403 C98.6958161,12.3159315 99.6083324,12.5301195 100.294988,12.7443105 C100.981645,12.9585017 101.568908,13.3244062 102.056794,13.8420348 C102.544682,14.3596635 102.788621,15.0736233 102.788621,15.9839357 C102.788621,17.2155349 102.26912,18.1927675 101.230101,18.9156626 C100.191082,19.6385578 98.750029,20 96.9068995,20 Z M112.453661,19.0093708 C112.092264,19.3306575 111.649558,19.5760813 111.125531,19.7456493 C110.601504,19.9152173 110.05038,20 109.472143,20 C108.134971,20 107.105002,19.6430201 106.382207,18.9290495 C105.65941,18.215079 105.298018,17.2066107 105.298018,15.9036145 L105.298018,2.70414991 L107.222452,2.70414991 L107.222452,5.78313255 L111.532101,5.78313255 L111.532101,7.38955827 L107.222452,7.38955827 L107.222452,15.7965195 C107.222452,16.6354348 107.430253,17.2735365 107.845861,17.7108434 C108.261468,18.1481504 108.866801,18.3668005 109.661876,18.3668005 C110.529231,18.3668005 111.233947,18.1258391 111.776044,17.643909 L112.453661,19.0093708 Z M128.960429,5.78313255 L128.960429,19.8661312 L127.117309,19.8661312 L127.117309,17.08166 C126.539073,18.0276709 125.77563,18.7505553 124.826961,19.2503346 C123.878292,19.7501141 122.807667,20 121.615053,20 C120.27788,20 119.067216,19.6965671 117.983022,19.0896921 C116.898828,18.4828171 116.049556,17.6349898 115.435179,16.5461847 C114.820803,15.4573796 114.51362,14.2168745 114.51362,12.8246318 C114.51362,11.4323893 114.820803,10.1918841 115.435179,9.103079 C116.049556,8.01427391 116.898828,7.17090882 117.983022,6.57295855 C119.067216,5.97500818 120.27788,5.67603745 121.615053,5.67603745 C122.771526,5.67603745 123.815047,5.91253664 124.745647,6.38554218 C125.676246,6.85854764 126.439688,7.55019627 127.035996,8.46050873 L127.035996,5.78313255 L128.960429,5.78313255 Z M121.777681,18.313253 C122.771525,18.313253 123.67049,18.0856783 124.4746,17.6305221 C125.27871,17.1753658 125.911148,16.5283397 126.371929,15.6894244 C126.832712,14.850509 127.0631,13.8955877 127.0631,12.8246318 C127.0631,11.753676 126.832712,10.7987547 126.371929,9.95983936 C125.911148,9.120924 125.27871,8.47389782 124.4746,8.01874164 C123.67049,7.56358536 122.771525,7.33601073 121.777681,7.33601073 C120.765767,7.33601073 119.857768,7.56358536 119.053659,8.01874164 C118.249548,8.47389782 117.617111,9.120924 117.156329,9.95983936 C116.695546,10.7987547 116.465159,11.753676 116.465159,12.8246318 C116.465159,13.8955877 116.695546,14.850509 117.156329,15.6894244 C117.617111,16.5283397 118.249548,17.1753658 119.053659,17.6305221 C119.857768,18.0856783 120.765767,18.313253 121.777681,18.313253 Z M134.270646,8.54083 C134.722393,7.594819 135.395486,6.88085918 136.289947,6.39892909 C137.184407,5.91699891 138.291171,5.67603745 139.610274,5.67603745 L139.610274,7.523427 L139.149494,7.49665327 C137.649692,7.49665327 136.475167,7.95180264 135.625881,8.86211509 C134.776596,9.77242755 134.35196,11.0486308 134.35196,12.6907631 L134.35196,19.8661312 L132.427525,19.8661312 L132.427525,5.78313255 L134.270646,5.78313255 L134.270646,8.54083 Z M147.118278,20 C145.961804,20 144.85504,19.8348968 143.797951,19.5046854 C142.740862,19.174474 141.914177,18.7594849 141.31787,18.2597055 L142.185221,16.7603748 C142.781527,17.2244557 143.531417,17.6037468 144.434912,17.8982597 C145.338407,18.1927725 146.278027,18.3400268 147.253802,18.3400268 C148.554834,18.3400268 149.517042,18.1392255 150.140453,17.7376171 C150.763864,17.3360087 151.075565,16.7693031 151.075565,16.0374833 C151.075565,15.5198546 150.903904,15.11379 150.560576,14.8192771 C150.217248,14.5247643 149.783577,14.3016518 149.25955,14.1499331 C148.735523,13.9982144 148.039842,13.8509601 147.172487,13.708166 C146.016014,13.4939748 145.085428,13.2753246 144.380702,13.0522088 C143.675976,12.829093 143.075161,12.4498019 142.578239,11.914324 C142.081317,11.3788461 141.83286,10.6381127 141.83286,9.69210173 C141.83286,8.51405036 142.329774,7.55020455 143.323619,6.80053545 C144.317463,6.05086636 145.699789,5.67603745 147.470639,5.67603745 C148.392204,5.67603745 149.313755,5.79651818 150.23532,6.03748327 C151.156884,6.27844836 151.915809,6.595268 152.512115,6.98795182 L151.67187,8.51405618 C150.497326,7.71083936 149.09693,7.30923691 147.470639,7.30923691 C146.241886,7.30923691 145.315818,7.52342491 144.692407,7.95180727 C144.068995,8.38018955 143.757294,8.94243291 143.757294,9.63855418 C143.757294,10.1740321 143.933473,10.602408 144.285836,10.9236948 C144.638199,11.2449815 145.076388,11.4814807 145.600414,11.6331995 C146.124441,11.7849182 146.847226,11.9410969 147.768791,12.1017403 C148.907195,12.3159315 149.819711,12.5301195 150.506367,12.7443105 C151.193023,12.9585017 151.780285,13.3244062 152.268173,13.8420348 C152.75606,14.3596635 153,15.0736233 153,15.9839357 C153,17.2155349 152.480498,18.1927675 151.441479,18.9156626 C150.40246,19.6385578 148.961408,20 147.118278,20 Z M71.4517237,13.3118097 L59.7754331,13.3118097 C59.8815817,14.7980816 60.4388536,15.9988626 61.4472656,16.9141886 C62.4556776,17.8295146 63.729442,18.2871708 65.2685969,18.2871708 C66.1354774,18.2871708 66.9315806,18.1285771 67.6569293,17.8113849 C68.3822781,17.4941927 69.0103152,17.0274741 69.541058,16.4112149 L70.6025389,17.6618522 C69.9833388,18.4231134 69.2093496,19.0031133 68.2805498,19.4018692 C67.3517491,19.8006251 66.3300833,20 65.2155226,20 C63.7825166,20 62.513175,19.6873438 61.4074601,19.0620221 C60.3017452,18.4367004 59.4393005,17.5712318 58.8201002,16.4655905 C58.2008999,15.3599492 57.8913043,14.1093245 57.8913043,12.7136788 C57.8913043,11.3180333 58.1876315,10.0674085 58.7802947,8.96176718 C59.3729579,7.85612591 60.1867518,6.99518855 61.2217009,6.37892945 C62.2566501,5.76267036 63.4198447,5.45454545 64.7113197,5.45454545 C66.0027944,5.45454545 67.1615661,5.76267036 68.1876694,6.37892945 C69.2137736,6.99518855 70.0187219,7.85159464 70.6025389,8.94817336 C71.1863569,10.044752 71.4782609,11.299908 71.4782609,12.7136788 L71.4517237,13.3118097 Z M64.7113197,7.11299918 C63.3667704,7.11299918 62.2389581,7.55253027 61.327849,8.43160582 C60.4167399,9.31068127 59.8992732,10.4570873 59.7754331,11.8708581 L69.6737428,11.8708581 C69.5499031,10.4570873 69.0324366,9.31068127 68.121327,8.43160582 C67.2102183,7.55253027 66.0735607,7.11299918 64.7113197,7.11299918 Z M55.147376,13.3118097 L43.4710852,13.3118097 C43.5772339,14.7980816 44.1345058,15.9988626 45.1429178,16.9141886 C46.1513298,17.8295146 47.4250942,18.2871708 48.9642494,18.2871708 C49.8311298,18.2871708 50.6272325,18.1285771 51.3525815,17.8113849 C52.0779305,17.4941927 52.7059671,17.0274741 53.2367102,16.4112149 L54.2981912,17.6618522 C53.6789909,18.4231134 52.9050021,19.0031133 51.9762016,19.4018692 C51.0474011,19.8006251 50.0257359,20 48.9111753,20 C47.4781687,20 46.2088272,19.6873438 45.1031122,19.0620221 C43.9973974,18.4367004 43.1349527,17.5712318 42.5157524,16.4655905 C41.8965521,15.3599492 41.5869565,14.1093245 41.5869565,12.7136788 C41.5869565,11.3180333 41.8832837,10.0674085 42.4759468,8.96176718 C43.0686101,7.85612591 43.882404,6.99518855 44.9173531,6.37892945 C45.9523023,5.76267036 47.1154968,5.45454545 48.4069718,5.45454545 C49.6984468,5.45454545 50.8572186,5.76267036 51.883322,6.37892945 C52.9094255,6.99518855 53.7143738,7.85159464 54.2981912,8.94817336 C54.8820087,10.044752 55.173913,11.299908 55.173913,12.7136788 L55.147376,13.3118097 Z M48.4069718,7.11299918 C47.0624226,7.11299918 45.9346102,7.55253027 45.0235012,8.43160582 C44.1123921,9.31068127 43.5949254,10.4570873 43.4710852,11.8708581 L53.3693954,11.8708581 C53.2455553,10.4570873 52.7280885,9.31068127 51.8169794,8.43160582 C50.9058704,7.55253027 49.7692125,7.11299918 48.4069718,7.11299918 Z" id="path-1" fill="#0865AC"></path>
            <path d="M8.18697209,1 C7.94447325,1 7.74987547,1.20873294 7.75800151,1.4644534 C7.80889627,3.0019387 8.00905405,5.53022781 8.3589024,9.05067611 C6.95394898,8.20535287 4.73681706,7.21229005 1.70750655,6.07103589 C1.4804045,5.98564514 1.22764119,6.11486078 1.15322356,6.35747894 L0.0211347737,10.0491606 C-0.0545659108,10.2967485 0.0797279648,10.5619569 0.317949894,10.6274682 C2.55518316,11.2473419 4.90917511,11.8107401 7.37992578,12.3158557 C6.40137677,13.2669009 4.80439168,15.178479 2.58768741,18.0519456 C2.43200916,18.2539014 2.46793492,18.555254 2.66809266,18.7070597 L5.56738616,20.9136652 C5.75770709,21.0582421 6.02372872,21.0171281 6.16144409,20.8169794 C7.24605956,19.240639 8.48891938,17.0430696 9.88959591,14.2233677 C11.3899236,16.9531608 12.7050627,19.1493748 13.8345853,20.8133649 C13.9710177,21.0157726 14.2366116,21.0591457 14.4286433,20.9159242 L17.379687,18.7075116 C17.5824108,18.5561576 17.619192,18.2507388 17.4613753,18.0478793 C15.3379069,15.3194415 13.6810456,13.408767 12.4907913,12.3158557 C14.8482047,12.0303163 17.2513807,11.4736951 19.7003193,10.6468958 C19.926566,10.5705411 20.0523061,10.3112062 19.9791716,10.0726543 L18.8376737,6.3511537 C18.7641114,6.11079455 18.515625,5.98022351 18.2889506,6.06064443 C15.74421,6.96922009 13.4744725,7.95505408 11.4805934,9.0181463 C11.8595245,6.03669887 12.0891927,3.51925304 12.1691703,1.4662606 C12.1790071,1.21008835 11.9831262,1 11.739772,1 L8.18697209,1 Z" id="path-3" fill="#054B81"></path>
        </g>
    </g>
</svg>