<svg xmlns="http://www.w3.org/2000/svg" viewBox="21.45 268.8 600.05 103.48"><path d="m595.4 306 5.8 17.8h-12.4l7-17.8zm-26.5 37.3H583l3.3-9.1h17.8l3.3 9.1h14.1L602 291.5h-13.7zm-16.6 0h14.1v-51.8h-14.1zm-45.6-17.8c0 12.4 9.9 17.8 21.5 17.8 10.8 0 21.5-4.1 21.5-16.6 0-9.1-7.5-12.4-14.5-14.5-7.9-2.1-14.9-2.1-14.9-6.2 0-3.3 4.1-4.1 6.2-4.1 4.1 0 8.3 1.2 8.3 5.8h12.4c0-11.2-9.9-16.6-19.9-16.6-9.5 0-20.7 4.1-20.7 15.7 0 9.1 8.3 12.4 14.9 14.1 7.5 2.1 14.5 2.9 14.5 7.5 0 4.1-4.1 5-8.3 5-5.4 0-9.1-2.1-9.1-8.3h-12.4zM483.1 306l5.8 17.8h-12.4l7-17.8zm-26 37.3h13.7l3.3-9.1h18.2l3.3 9.1h14.1l-19.5-51.8h-14.1zm-45.6 0h5.4v-43.9l30.2 43.9h5.8v-51.8h-5V335l-30.6-43h-5.8zm-10.8 0h5v-51.8h-5zm-51.3 0H363v-20.7h17.8v20.7h13.3v-51.8h-13.3v18.6H363V292h-13.7v51.3zm-4.2-33.1c0-11.6-11.2-18.6-21.9-18.6-14.9 0-24.8 11.6-24.8 26.1 0 14.1 9.9 25.7 24.8 25.7 12.4 0 21.9-7.5 22.8-20.7h-12.4c-.8 6.2-4.1 9.5-10.4 9.5-8.3 0-11.6-7.5-11.6-14.5 0-7.5 3.3-14.9 11.6-14.9 5.4 0 9.5 2.5 9.9 7.5h12.4-.4zm-89.8 33.1h42.2v-11.6h-29v-9.9h25.7v-10.4h-24.8v-9.5h27.3V292h-41.4zm-4.2-51.8h-43.5v11.6H223v40.2h13.7v-40.2H252v-11.6z"/><path d="M126.1 311c1.2.8 2.5 0 2.1-1.7l-6.6-11.6h-2.5L77.7 371c-1.7 1.7-4.1 1.7-5 0l-14.1-23.6-.8-3.3v-20.7c0-2.1-.8-3.3-2.1-4.1l-33.1-29c-2.1-1.2-1.2-4.1 1.7-4.1h59.2l14.5 8.3c.8.8.8 1.7 0 2.1l-5.8 10.8c0 .8-.8 1.2-1.2.8L79.4 302l-2.5-.8H61.5c-1.2 0-1.7 1.7-.8 2.5l10.4 8.3c1.2 1.2 1.7 2.9 1.7 4.1v27.3c0 1.7 2.1 2.1 2.9.8l43.1-74.5c.8-1.2 4.1-1.2 4.1 0l44.3 76.6c2.1 2.5-.8 5-3.3 4.1l-51.4-30.2c-.8 0-1.2-1.2-.8-1.7l6.2-10.4c0-.8 1.2-.8 2.1-.8l6.2 4.1v-.4z" style="fill:#e10000"/></svg>